<svg id="Layer_1" data-name="Layer 1" xmlns="http://www.w3.org/2000/svg" viewBox="0 0 925.79 193.33"><title>font</title><path d="M255,379.13A50.8,50.8,0,0,1,219,393c-28.65,0-51.36-21.69-51.36-50.54,0-29.05,22.71-50.54,51.36-50.54,14.32,0,26.8,5.12,36,13.92h39.69v-25h33.15V420.66H294.67V379.13Zm76.93,65.06v26H198.71V407.36h33.15v36.83ZM219,364.19c11.45,0,20.05-7.37,20.05-21.69s-8.6-21.69-20.05-21.69-20.06,7.37-20.06,21.69S207.51,364.19,219,364.19Zm75.7-32.33H269.3a60.92,60.92,0,0,1,1,10.64,62.83,62.83,0,0,1-1,10.64h25.37Z" transform="translate(-167.11 -280.42)" style="fill:none;stroke:#000"/><path d="M415.38,329.2V317.13H359.73v-26h88.39v62.4H392.67v12.89c29.67-.41,49.11-1.43,70.18-5.52l3.07,26c-25,4.91-48.9,5.73-89.21,5.73H359.93V329.2ZM376.3,405.73H506.23V473H473.08V431.5H376.3Zm153.86-54H506.23v46H473.08V281.12h33.15v43.79h23.93Z" transform="translate(-167.11 -280.42)" style="fill:none;stroke:#000"/><path d="M716.15,411H644.94v62.2H611.8V411H542.23v-26H716.15Zm-166.55-60c40.1-4.5,55.85-20.66,59.33-35.6H557.17V289.71H700.6v25.78h-51c3.48,14.94,19.23,31.1,59.33,35.6l-11.86,25.79c-34.79-4.3-56.68-17.4-67.93-35.4-11.25,18-32.94,31.1-67.73,35.4Z" transform="translate(-167.11 -280.42)" style="fill:none;stroke:#000"/><path d="M794.1,325.31c0,31.51,4.7,63,31.3,81l-17.6,25.78c-14.73-9-23.93-23.12-29.87-39.9-6.34,18.82-16.57,34.37-32.33,44.2L726,411.66c29.26-18,36-52.38,36-84.71V297.08H794.1Zm31.71-41.73H856.5V465.06H825.81V369.92H806v-26.4h19.85Zm70.38-2.66V472.83h-31.3V280.92Z" transform="translate(-167.11 -280.42)" style="fill:none;stroke:#000"/><path d="M1092.4,425.37v26.39H918.7V425.37h35.8V380.76c-13.71-9.2-21.89-22.71-21.89-39.08,0-32.12,31.1-52.78,72.84-52.78s72.84,20.66,72.84,52.78c0,16.37-8.19,29.88-21.9,39.08v44.61ZM965.34,341.68c0,17.6,15.55,27.22,40.11,27.22s40.1-9.62,40.1-27.22c0-17.8-15.55-27.21-40.1-27.21S965.34,323.88,965.34,341.68Zm22.1,83.69h36V392.83a113.28,113.28,0,0,1-36,0Z" transform="translate(-167.11 -280.42)" style="fill:none;stroke:#000"/></svg>