<svg id="Layer_1" data-name="Layer 1" xmlns="http://www.w3.org/2000/svg" viewBox="0 0 1280 720"><title>wave5</title><circle cx="1074.5" cy="514.5" r="205.5" style="fill:#5ca0d7;opacity:0.36"/><rect width="1280" height="720" style="fill:none"/><rect width="1280" height="720" style="fill:none"/><circle cx="511.47" cy="503.5" r="87.28" style="fill:#d8d8ef"/><circle cx="370.5" cy="168.75" r="35.75" style="fill:#5ca0d7;opacity:0.36"/><circle cx="1017" cy="142.5" r="35.75" style="fill:#f0597e;opacity:0.36000001430511475;isolation:isolate"/><path d="M184.5,216.5A143.5,143.5,0,1,0,328,360,143.5,143.5,0,0,0,184.5,216.5Zm0,221.36A77.86,77.86,0,1,1,262.36,360,77.86,77.86,0,0,1,184.5,437.86Z" style="fill:#f0597e;opacity:0.36000001430511475;isolation:isolate"/><path d="M731.5,54a134,134,0,1,0,134,134A134,134,0,0,0,731.5,54Zm-1.75,202a69.75,69.75,0,1,1,69.75-69.75A69.75,69.75,0,0,1,729.75,256Z" style="fill:#d8d8ef"/></svg>